<svg xmlns="http://www.w3.org/2000/svg" viewBox="0 0 160 135">
<!-- SVG created with Arrow, by QuiverAI (https://quiver.ai) -->
  <style type="text/css">.cls-0 {fill:#F8F8F8;}
.cls-1 {fill:#E9E4DF;}
.cls-2 {fill:#EDEAE5;}
.cls-3 {fill:#CACCD1;}
.cls-4 {fill:#FFFFFF;}
.cls-5 {fill:#DDDAD7;}
.cls-6 {fill:#3D576C;}
.cls-7 {fill:#3B556B;}</style>
  <path class="cls-1" d="m37 23.9c-4.1 0.1-7.3 1.6-8.9 2.5l-12 5.9c-3.5 1.7-6.6 6.3-6.5 12.4v44.3c0 5.6 2.4 10.2 5.4 12.1l22 11 19.8 10.6c2.6 1.4 13.2 5.2 13.2-0.6v-40.1l-20.1-45-12.9-13.1z"/>
  <path class="cls-2" d="m91.8 23.7c-6.8 0-10.6 2.7-16.9 5.7-4.6 2.2-13.9 3.1-20.5 0.2l-11.6-5.5c-3.5-1.9-3.3-4.2-1.6-4.7l14-6.9c2.9-2.1 5.4-2.8 9.6-3 2.6 0.1 5.3 0.6 8 1.8l40 20.7-8.8 2-12.2-10.3z"/>
  <path class="cls-2" d="m112.7 31.8-13.9-6.7c-8.8-3.2-14.8-0.1-19.5 2-3.9 1.9-6.6 3.7-10.3 4l-11-0.1-21.3 0.5-2.6 15.9s3 3.1 2.9 9.6l-0.1 42.4c0.1 8.1 2 13.1 6.3 16.7l14.3 7.4c1.9 0.9 3.9 1.8 6.9 2h1.6l0.1-39 25.3-39.7 19.4-9.8 4.3-3.5 0.2-0.2c-0.7-0.5-1.7-1.1-2.6-1.5z"/>
  <path class="cls-1" d="m92 47-1.1 6v14c0 6.6-3.9 13.8-9.9 18.3-2 1.5-10.1 5.7-16.3 7.9l0.3 32.3c2.2 0 4.6-0.2 6.4-1 4.1-1.6 10.7-5.2 13.9-6.8s6-5.2 6-11.2l0.2-10.6c0.5-7.9 3.3-13.9 8.5-18 5.4-4.2 11.1-5.1 14.9-8.7 2.6-2.3 4-5.3 4.1-8.9v-15.6c0-4.5-1.6-9.6-3.9-11.2l-15.7 8-7.4 5.5z"/>
  <path class="cls-2" d="m38 23.9c-4.3-0.1-7.8 1.5-9.5 2.4l-12.7 6.1c-2.7 1.6-2.8 3.8-0.6 4.6l15.7 8.1c2.2 1 5.6 2.5 10.6 0.9 3.2-1 9.3-4.1 13-6 2.7-1.5 6.1-2.5 10.5-2.5 4 0 7.9 1 10.5 2.2l11.2 5.8c4.5 1.7 8.2 1.3 10.6 0.1l16.1-8.1c2.5-1 2.3-3.3 1.4-4.2l-14.8-7.6c-2.3-1.1-4.6-1.9-8.9-1.9s-8.5 1.6-11.5 3.2l-4.5 2.2c-4.2 2-14.6 3.6-21.5 0l-7.7-3.8c-2-0.9-4.4-1.5-7.9-1.5z"/>
  <path class="cls-1" d="m64.9 100c-0.5-3.4-2.5-6.4-5.7-8.5l-8.7-5.1c-3-1.4-4.1-1.2-7-0.2l-4.4 2.7c-1.6 1.1-2.3 3.1-2.3 6.3l0.1 7.8c0.4 4.6 2.1 10 5.5 13.1l15.1 7.5c1.9 0.9 7.3 3.5 7.3-2.7l0.1-20.9z"/>
  <path class="cls-3" d="m92.3 48-20.4 10.5c-4.5 2.1-7.3 6.5-7.3 13.6v21.2c2 0 8-3 14.9-6.4 6.4-3.3 11.9-11 12-19.9v-13.5l0.8-5.5zm-27.3-38.5c-3.8 0.1-6.4 0.9-9.8 2.6l-14.1 7.2c-1.6 0.7-1.3 3.1 2 4.7l10.7 5.2c5.4 2.8 15.6 3.2 21.3 0.5l5.9-2.8c4-1.9 9.6-4.4 15.9-2.4 0.1 0-21.5-10.6-23.9-12.6-1-0.4-4-2.3-8-2.4zm26.5 84.5c0-8-6.7-10.3-12.7-7.3l-4.9 2.3c-4.9 2.4-9.2 6.5-9.2 14.5v15.6c0 5.4 2.9 7.3 7.9 4.8 3-1.3 7.5-3.8 12.9-6.7 3.5-1.7 5.9-5.2 6-10.7v-12.5z"/>
  <path class="cls-5" d="m119 60.1c0 2.8-1.8 7.4-6.1 10.3-5 3.3-9.3 4.2-13 7.1-4.4 3.5-8.4 10-8.4 17.5 0 5.6-0.7 15.4 5.4 15.4 1.2 0 2.6-0.9 3.6-1.4l10.6-5.3c1.3-0.7 2.7-1.3 3.4-2 2.1-1.7 4.5-5.1 4.4-11.7l0.1-29.9z"/>
  <path class="cls-4" d="m35.5 47.5 22.6 11.6c4.8 1.6 9.8 1.5 13.9 0l20.4-11c-1.9 0.9-10-3.6-16.4-7.5-6-3.2-14-4.2-20.8-1.6-5.1 2.5-12.6 6.6-16.3 7.6l-3.4 0.5v0.4z"/>
  <path class="cls-1" d="m115.3 33.5c1 2-0.8 3.4-1 3.4l-15.8 8-4.5 1.6c-1.9 0.6 3 3.5 7.6 3.5l13.4 0.9 3.5-1.4 0.4-9.6c-0.7-2.8-2.4-5.3-3.6-6.4z"/>
  <path class="cls-6" d="m134.6 25h12.9c1.3 0 2.1 3.4 0 3.4l-4 0.1v12.1c0 1.5-0.9 2.4-1.9 2.4h-0.6c-1.1 0.1-1.9-0.9-1.9-2.1v-12.5h-4.4c-2.2 0-2.8-3.4-0.1-3.4zm6.7 21.9c4.8 0 9 3.1 8.9 9.8 0 5.2-2.8 9.7-8.7 9.7h-0.5c-5.6 0.1-9.2-3.4-9.3-9.8 0-6 3.7-9.8 9.2-9.7h0.4zm-0.2 3.9c-2.6-0.1-4.7 1.2-4.7 5.9 0 4.2 2.3 6 5 6 2.6 0 4.5-2.3 4.6-5.7 0-3-1-6-4.4-6.2h-0.5zm1 19.4c4.9 0.3 7.5 3.5 7.5 8.8 0.4 6.1-3.2 9.2-7.6 9.2l-6.5 0.1c-1.9 0.1-2.6-1.4-2.6-2.7l0.1-13.1c0-1.6 1-2.5 2.1-2.5l7 0.2zm-4.5 3.4h-0.1v11.3l3.4-0.1c2.8 0 4.5-1.7 4.5-5.3 0-3.5-1.4-5.9-4.4-5.9h-3.4zm3.7 18.3c4.8 0 9 3.1 8.9 10.2 0 5-3.1 9.3-8.9 9.4s-9.5-3.1-9.6-9c-0.2-5.5 3.2-10.9 9.6-10.6zm0.1 4c-2.9-0.4-5 1.6-5 6.7 0.2 4.1 2.4 5.9 5.4 5.8 2.3-0.2 4.6-2 4.2-6.9-0.4-3.9-2.1-5.4-4.6-5.6z"/>
  <path class="cls-7" d="m51 70.6c-0.3-0.4-2.4 0.5-1.6-0.1 0.4-0.5 0.7-0.9 1.5-1.3-0.3-0.3-0.5-0.5-0.5-0.6-0.3-1.1-2.4-0.6-3.1-0.3l1.8-1.4c0.8-0.9-1.6-0.4-4.5 0.7-0.6 0.4-2.7 1.6-3.8 2.4l0.6 0.5c-0.5 0.4-1.5 0.9-1.4 1.4-1 0.1-3.1 2.1-4 2.6-2-5-3.9-10.9-8-16-1.6-1.4-0.3 0.9 0.9 3.1-1-0.7-2.4-3.2-3.8-3.6-3.6-0.8-1.5 1.1-1 2 3.5 5.5 5.4 12 8.2 17.5-3.7 3.1-7.2 5.6-10.9 10.6-0.4 0.9-0.8 1.9 0.4 1.9l-0.4 0.9c0.5 1 3.5 1.5 4.7 0.6 3-2.3 6-5.4 9.3-8.3l1.2 2.4 3.3 7.8c1.2 2.5 4.6 9.2 6.5 10.7 1 1-0.9-2-2.6-4.2 1.5 2.1 4 3.7 4.7 5.1 1.4 0.9-0.1-1.6-0.1-1.6l0.2-0.4c-1-2.6-2.8-5.6-3.8-8.5 0.6 1 2.6 5 3.8 6.5 1 1-1-2.6-2-4.9l-4-9.5-3-6.5c3.4-3.1 6.9-5.6 11.3-8.7 0.5-0.3 0.1-0.5 0.1-0.8zm-7.6 5.5c1.7-2 4.2-3.2 6-4.5l-6 4.5zm1 16.3-4.5-10.5 4.5 10.5z"/>
</svg>